<mxfile host="app.diagrams.net" modified="2024-03-04T14:54:03.935Z" agent="Mozilla/5.0 (Windows NT 10.0; Win64; x64) AppleWebKit/537.36 (KHTML, like Gecko) Chrome/122.0.0.0 Safari/537.36" version="24.0.1" etag="lCLxsD_EYhS_4SmNMfDo" type="github">
  <diagram name="Sivu-1" id="sefcnkp7EYTjxuNCk3x6">
    <mxGraphModel>
      <root>
        <mxCell id="0" />
        <mxCell id="1" parent="0" />
      </root>
    </mxGraphModel>
  </diagram>
</mxfile>
